# xmcd CD database file
#
# Track frame offsets:
#	150
#	14935
#	29675
#	46927
#	63672
#	75422
#	85825
#	98170
#	111287
#	122962
#	133330
#	147530
#	161535
#	179985
#	198435
#	212210
#	225330
#	234117
#	244762
#	261105
#	274067
#	291170
#	306532
#
# Disc length: 4325 seconds
#
# Revision: 1
# Processed by: cddbd v1.5.2PL0 Copyright (c) Steve Scherf et al.
# Submitted via: CDex 1.51
#
DISCID=6210e317
DTITLE=Sylvie Vartan - The Very Best Of Sylvie Vartan
DYEAR=2005
DGENRE=Chanson
TTITLE0=Love Is Blue (L 'Amour Est Blue)
TTITLE1=Holidays
TTITLE2=La Reine De Saba
TTITLE3=La Maritza
TTITLE4=La Plus Belle Pour Aller Danser
TTITLE5=En Ecoutant La Pluie (Rhythm Of The Rain)
TTITLE6=Irresistiblement
TTITLE7=Zum Zum Zum
TTITLE8=Tous Mes Copains
TTITLE9=Ballade Pour Un Sourire
TTITLE10=Par Amour, Par Pitie
TTITLE11=Deux Mains
TTITLE12=Nicolas
TTITLE13=Caro Mozart
TTITLE14=Quand Le Film Est Triste (Sad Movies)
TTITLE15=Le Drole De Fin (Last Tango)
TTITLE16=Si Je Chante
TTITLE17=Les Filles N'ont Aucun Degout
TTITLE18=Petit Rainbow
TTITLE19=Da Dou Ron Ron (Da Doo Ron Ron)
TTITLE20=Disco Queen (Johnny,Johnny Please Come Home)
TTITLE21=L 'Amour, C 'Est Comme Une Cigarette (Morning Train)
TTITLE22=Danse Ta Vie (What A Feeling)
EXTD=YEAR: 2005
EXTT0=
EXTT1=
EXTT2=
EXTT3=
EXTT4=
EXTT5=
EXTT6=
EXTT7=
EXTT8=
EXTT9=
EXTT10=
EXTT11=
EXTT12=
EXTT13=
EXTT14=
EXTT15=
EXTT16=
EXTT17=
EXTT18=
EXTT19=
EXTT20=
EXTT21=
EXTT22=
PLAYORDER=
